<?xml version="1.0" encoding="utf-8" standalone="no"?>
<!DOCTYPE svg PUBLIC "-//W3C//DTD SVG 1.1//EN"
  "http://www.w3.org/Graphics/SVG/1.1/DTD/svg11.dtd">
<svg xmlns:xlink="http://www.w3.org/1999/xlink" width="126pt" height="125.28pt" viewBox="0 0 126 125.28" xmlns="http://www.w3.org/2000/svg" version="1.1">
 <metadata>
  <rdf:RDF xmlns:dc="http://purl.org/dc/elements/1.1/" xmlns:cc="http://creativecommons.org/ns#" xmlns:rdf="http://www.w3.org/1999/02/22-rdf-syntax-ns#">
   <cc:Work>
    <dc:type rdf:resource="http://purl.org/dc/dcmitype/StillImage"/>
    <dc:date>2025-04-24T16:55:14.198144</dc:date>
    <dc:format>image/svg+xml</dc:format>
    <dc:creator>
     <cc:Agent>
      <dc:title>Matplotlib v3.9.4, https://matplotlib.org/</dc:title>
     </cc:Agent>
    </dc:creator>
   </cc:Work>
  </rdf:RDF>
 </metadata>
 <defs>
  <style type="text/css">*{stroke-linejoin: round; stroke-linecap: butt}</style>
 </defs>
 <g id="figure_1">
  <g id="patch_1">
   <path d="M 0 125.28 
L 126 125.28 
L 126 0 
L 0 0 
z
" style="fill: #ffffff"/>
  </g>
  <g id="axes_1">
   <g id="patch_2">
    <path d="M 63 112.536 
C 76.3185 112.536 89.093301 107.278643 98.510903 97.9218 
C 107.928504 88.564957 113.22 75.872574 113.22 62.64 
C 113.22 49.407426 107.928504 36.715043 98.510903 27.3582 
C 89.093301 18.001357 76.3185 12.744 63 12.744 
C 49.6815 12.744 36.906699 18.001357 27.489097 27.3582 
C 18.071496 36.715043 12.78 49.407426 12.78 62.64 
C 12.78 75.872574 18.071496 88.564957 27.489097 97.9218 
C 36.906699 107.278643 49.6815 112.536 63 112.536 
z
" clip-path="url(#pb7bc592198)" style="fill: #800080; stroke: #800080; stroke-linejoin: miter"/>
   </g>
   <g id="patch_3">
    <path d="M 63 12.744 
C 49.685936 12.744 36.903562 18.004474 27.489097 27.3582 
C 18.074633 36.711926 12.78 49.411833 12.78 62.64 
C 12.78 75.868167 18.074633 88.568074 27.489097 97.9218 
C 36.903562 107.275526 49.685936 112.536 63 112.536 
L 63 62.64 
z
" clip-path="url(#pb7bc592198)" style="fill: #ffffff; stroke: #ffffff; stroke-linejoin: miter"/>
   </g>
   <g id="patch_4">
    <path d="M 60.838745 112.536 
C 74.157245 112.536 86.932046 107.278643 96.349648 97.9218 
C 105.767249 88.564957 111.058745 75.872574 111.058745 62.64 
C 111.058745 49.407426 105.767249 36.715043 96.349648 27.3582 
C 86.932046 18.001357 74.157245 12.744 60.838745 12.744 
C 47.520245 12.744 34.745444 18.001357 25.327842 27.3582 
C 15.910241 36.715043 10.618745 49.407426 10.618745 62.64 
C 10.618745 75.872574 15.910241 88.564957 25.327842 97.9218 
C 34.745444 107.278643 47.520245 112.536 60.838745 112.536 
z
" clip-path="url(#pb7bc592198)" style="fill: #800080; stroke: #800080; stroke-linejoin: miter"/>
   </g>
  </g>
 </g>
 <defs>
  <clipPath id="pb7bc592198">
   <rect x="7.2" y="7.2" width="111.6" height="110.88"/>
  </clipPath>
 </defs>
</svg>
