<?xml version="1.0" encoding="utf-8" standalone="no"?>
<!DOCTYPE svg PUBLIC "-//W3C//DTD SVG 1.1//EN"
  "http://www.w3.org/Graphics/SVG/1.1/DTD/svg11.dtd">
<svg xmlns:xlink="http://www.w3.org/1999/xlink" width="126pt" height="125.28pt" viewBox="0 0 126 125.28" xmlns="http://www.w3.org/2000/svg" version="1.1">
 <metadata>
  <rdf:RDF xmlns:dc="http://purl.org/dc/elements/1.1/" xmlns:cc="http://creativecommons.org/ns#" xmlns:rdf="http://www.w3.org/1999/02/22-rdf-syntax-ns#">
   <cc:Work>
    <dc:type rdf:resource="http://purl.org/dc/dcmitype/StillImage"/>
    <dc:date>2025-04-24T16:55:12.758697</dc:date>
    <dc:format>image/svg+xml</dc:format>
    <dc:creator>
     <cc:Agent>
      <dc:title>Matplotlib v3.9.4, https://matplotlib.org/</dc:title>
     </cc:Agent>
    </dc:creator>
   </cc:Work>
  </rdf:RDF>
 </metadata>
 <defs>
  <style type="text/css">*{stroke-linejoin: round; stroke-linecap: butt}</style>
 </defs>
 <g id="figure_1">
  <g id="patch_1">
   <path d="M 0 125.28 
L 126 125.28 
L 126 0 
L 0 0 
z
" style="fill: #ffffff"/>
  </g>
  <g id="axes_1">
   <g id="patch_2">
    <path d="M 63 112.536 
C 76.3185 112.536 89.093301 107.278643 98.510903 97.9218 
C 107.928504 88.564957 113.22 75.872574 113.22 62.64 
C 113.22 49.407426 107.928504 36.715043 98.510903 27.3582 
C 89.093301 18.001357 76.3185 12.744 63 12.744 
C 49.6815 12.744 36.906699 18.001357 27.489097 27.3582 
C 18.071496 36.715043 12.78 49.407426 12.78 62.64 
C 12.78 75.872574 18.071496 88.564957 27.489097 97.9218 
C 36.906699 107.278643 49.6815 112.536 63 112.536 
z
" clip-path="url(#p2218b010c7)" style="fill: #800080; stroke: #800080; stroke-linejoin: miter"/>
   </g>
   <g id="patch_3">
    <path d="M 63 112.536 
C 76.314064 112.536 89.096438 107.275526 98.510903 97.9218 
C 107.925367 88.568074 113.22 75.868167 113.22 62.64 
C 113.22 49.411833 107.925367 36.711926 98.510903 27.3582 
C 89.096438 18.004474 76.314064 12.744 63 12.744 
L 63 62.64 
z
" clip-path="url(#p2218b010c7)" style="fill: #ffffff; stroke: #ffffff; stroke-linejoin: miter"/>
   </g>
   <g id="patch_4">
    <path d="M 98.252154 112.536 
C 111.570654 112.536 124.345455 107.278643 133.763057 97.9218 
C 143.180658 88.564957 148.472154 75.872574 148.472154 62.64 
C 148.472154 49.407426 143.180658 36.715043 133.763057 27.3582 
C 124.345455 18.001357 111.570654 12.744 98.252154 12.744 
C 84.933655 12.744 72.158853 18.001357 62.741252 27.3582 
C 53.32365 36.715043 48.032154 49.407426 48.032154 62.64 
C 48.032154 75.872574 53.32365 88.564957 62.741252 97.9218 
C 72.158853 107.278643 84.933655 112.536 98.252154 112.536 
z
" clip-path="url(#p2218b010c7)" style="fill: #800080; stroke: #800080; stroke-linejoin: miter"/>
   </g>
  </g>
 </g>
 <defs>
  <clipPath id="p2218b010c7">
   <rect x="7.2" y="7.2" width="111.6" height="110.88"/>
  </clipPath>
 </defs>
</svg>
