<?xml version="1.0" encoding="utf-8" standalone="no"?>
<!DOCTYPE svg PUBLIC "-//W3C//DTD SVG 1.1//EN"
  "http://www.w3.org/Graphics/SVG/1.1/DTD/svg11.dtd">
<svg xmlns:xlink="http://www.w3.org/1999/xlink" width="126pt" height="125.28pt" viewBox="0 0 126 125.28" xmlns="http://www.w3.org/2000/svg" version="1.1">
 <metadata>
  <rdf:RDF xmlns:dc="http://purl.org/dc/elements/1.1/" xmlns:cc="http://creativecommons.org/ns#" xmlns:rdf="http://www.w3.org/1999/02/22-rdf-syntax-ns#">
   <cc:Work>
    <dc:type rdf:resource="http://purl.org/dc/dcmitype/StillImage"/>
    <dc:date>2025-04-24T16:55:13.258055</dc:date>
    <dc:format>image/svg+xml</dc:format>
    <dc:creator>
     <cc:Agent>
      <dc:title>Matplotlib v3.9.4, https://matplotlib.org/</dc:title>
     </cc:Agent>
    </dc:creator>
   </cc:Work>
  </rdf:RDF>
 </metadata>
 <defs>
  <style type="text/css">*{stroke-linejoin: round; stroke-linecap: butt}</style>
 </defs>
 <g id="figure_1">
  <g id="patch_1">
   <path d="M 0 125.28 
L 126 125.28 
L 126 0 
L 0 0 
z
" style="fill: #ffffff"/>
  </g>
  <g id="axes_1">
   <g id="patch_2">
    <path d="M 63 112.536 
C 76.3185 112.536 89.093301 107.278643 98.510903 97.9218 
C 107.928504 88.564957 113.22 75.872574 113.22 62.64 
C 113.22 49.407426 107.928504 36.715043 98.510903 27.3582 
C 89.093301 18.001357 76.3185 12.744 63 12.744 
C 49.6815 12.744 36.906699 18.001357 27.489097 27.3582 
C 18.071496 36.715043 12.78 49.407426 12.78 62.64 
C 12.78 75.872574 18.071496 88.564957 27.489097 97.9218 
C 36.906699 107.278643 49.6815 112.536 63 112.536 
z
" clip-path="url(#p612d4d2571)" style="fill: #800080; stroke: #800080; stroke-linejoin: miter"/>
   </g>
   <g id="patch_3">
    <path d="M 63 112.536 
C 76.314064 112.536 89.096438 107.275526 98.510903 97.9218 
C 107.925367 88.568074 113.22 75.868167 113.22 62.64 
C 113.22 49.411833 107.925367 36.711926 98.510903 27.3582 
C 89.096438 18.004474 76.314064 12.744 63 12.744 
L 63 62.64 
z
" clip-path="url(#p612d4d2571)" style="fill: #ffffff; stroke: #ffffff; stroke-linejoin: miter"/>
   </g>
   <g id="patch_4">
    <path d="M 84.647278 112.536 
C 97.965778 112.536 110.740579 107.278643 120.158181 97.9218 
C 129.575782 88.564957 134.867278 75.872574 134.867278 62.64 
C 134.867278 49.407426 129.575782 36.715043 120.158181 27.3582 
C 110.740579 18.001357 97.965778 12.744 84.647278 12.744 
C 71.328779 12.744 58.553977 18.001357 49.136376 27.3582 
C 39.718774 36.715043 34.427278 49.407426 34.427278 62.64 
C 34.427278 75.872574 39.718774 88.564957 49.136376 97.9218 
C 58.553977 107.278643 71.328779 112.536 84.647278 112.536 
z
" clip-path="url(#p612d4d2571)" style="fill: #800080; stroke: #800080; stroke-linejoin: miter"/>
   </g>
  </g>
 </g>
 <defs>
  <clipPath id="p612d4d2571">
   <rect x="7.2" y="7.2" width="111.6" height="110.88"/>
  </clipPath>
 </defs>
</svg>
